<svg width="264" height="76" viewBox="0 0 264 76" fill="none" xmlns="http://www.w3.org/2000/svg">
    <defs>
        <linearGradient id="myGradient" x1="0%" y1="0%" x2="100%" y2="0%">
            <stop offset="0%" stop-color="#f42b03"/>
            <stop offset="100%" stop-color="#ffbe0b"/>
        </linearGradient>
    </defs>
<path d="M40.25 26.8438H16.5V38.5C18.2292 36.3542 20.2917 34.5 22.6875 32.9375C24.3125 31.875 25.9375 31.3438 27.5625 31.3438C30.8542 31.3438 33.625 32.6042 35.875 35.125C37.9375 37.4375 38.9688 39.9479 38.9688 42.6562C38.9688 45.7812 37.4583 48.9583 34.4375 52.1875C31.4167 55.3958 28.3542 57 25.25 57C23.6667 57 22 56.2917 20.25 54.875C19.7083 54.4375 18.375 53.1354 16.25 50.9688V57.375L10.8125 55.0312V26.8438H5.6875V23.0938H10.8125C10.8125 18.1354 9.42708 13.2708 6.65625 8.5C4.46875 4.72917 2.375 1.96875 0.375 0.21875H7.21875C9.28125 1.96875 11.0833 4.1875 12.625 6.875C15.2083 11.3958 16.5 16.8021 16.5 23.0938H40.25V26.8438ZM35.5 45.875C35.5 43.9375 34.4167 41.8438 32.25 39.5938C29.8333 37.0729 27.0312 35.8125 23.8438 35.8125C21.8438 35.8125 19.9688 36.8021 18.2188 38.7812C17.5312 39.5729 17.1875 40.1667 17.1875 40.5625C17.1875 42.2917 17.9583 44.2917 19.5 46.5625C22.75 51.3542 26.1042 53.75 29.5625 53.75C31.75 53.75 33.4583 52.3438 34.6875 49.5312C35.2292 48.3021 35.5 47.0833 35.5 45.875ZM74.3125 26.8438H49.0938V36.25C51.3646 33.7708 53.4688 32.1771 55.4062 31.4688C56.4896 31.0729 57.7083 30.875 59.0625 30.875C64.1458 30.875 67.9479 33.375 70.4688 38.375C71.5729 40.5625 72.125 42.7188 72.125 44.8438C72.125 48.7188 70.5312 52.2188 67.3438 55.3438C66.2812 56.3854 65.4896 57.1042 64.9688 57.5L59.8438 54.4375C61.1354 53.0833 62.6042 51.4167 64.25 49.4375C66.1042 47.2083 67.0417 44.3958 67.0625 41C67.0833 38.9792 66.625 37.2917 65.6875 35.9375C64.625 34.3542 63.125 33.5833 61.1875 33.625C59.3958 33.6667 57.4792 34.3438 55.4375 35.6562C53.6042 36.8229 52.0833 38.2188 50.875 39.8438C49.5625 41.5938 48.9062 43.2812 48.9062 44.9062V57.3125L43.0625 54.1875V26.8438H39.625V23.0938H43.0625C43.0625 16.9688 41.4688 11.7396 38.2812 7.40625C36.3646 4.80208 34.5938 2.96875 32.9688 1.90625L39.2812 1.84375C42.7812 3.76042 45.5625 7.89583 47.625 14.25C48.6042 17.2708 49.0938 20.2188 49.0938 23.0938H74.3125V26.8438ZM107.344 26.8438H100.312V35.4375C100.312 35.625 101.146 36.5521 102.812 38.2188C104.083 39.7604 104.719 41.9688 104.719 44.8438C104.719 49.6146 102.604 53.1458 98.375 55.4375C96.375 56.5208 94.1979 57.0625 91.8438 57.0625C88.4271 57.0625 84.9062 55.5521 81.2812 52.5312C77.4896 49.3646 75.5938 45.9271 75.5938 42.2188C75.5938 40.5104 76.2083 38.7396 77.4375 36.9062C78.5417 35.2604 79.875 33.8958 81.4375 32.8125C83.3125 31.5208 85.5729 30.875 88.2188 30.875C89.6771 30.875 91.8333 31.2604 94.6875 32.0312C94.8125 32.0312 94.875 31.9479 94.875 31.7812V26.8438H73.4375V23.0938H107.344V26.8438ZM100.125 40.6875C100.125 37.75 98.8333 35.7812 96.25 34.7812C95.2917 34.4062 94.4688 34.2188 93.7812 34.2188C91.1979 34.2188 88.4167 35.375 85.4375 37.6875C81.9583 40.3958 80.2188 43.8438 80.2188 48.0312C80.2188 49.9896 81.3438 51.5938 83.5938 52.8438C84.6146 53.4062 85.6458 53.6875 86.6875 53.6875C89.2708 53.6875 92.1042 52.4375 95.1875 49.9375C98.4792 47.2708 100.125 44.1875 100.125 40.6875ZM119.5 19.8125C119.375 19.8958 119.135 19.9375 118.781 19.9375C118.469 19.9375 118.146 19.8958 117.812 19.8125C116.167 16.5833 115.208 14.7917 114.938 14.4375C114.479 13.8125 113.24 13.2188 111.219 12.6562C110.594 12.4896 110.104 12.0833 109.75 11.4375C109.583 10.8542 109.312 10 108.938 8.875C108.646 8.22917 108.323 7.61458 107.969 7.03125V6.3125H109.25C110.979 6.83333 112.292 7.30208 113.188 7.71875C114.729 8.42708 115.812 9.30208 116.438 10.3438C116.771 10.9062 117.25 12.2292 117.875 14.3125C118.146 15.2708 118.635 16.6562 119.344 18.4688C119.448 19.0938 119.5 19.5417 119.5 19.8125ZM123.906 26.8438H105.094V23.0938H123.906V26.8438ZM119.625 69.0312C119.625 71.0938 118.26 72.8646 115.531 74.3438C114.26 75.0312 112.885 75.375 111.406 75.375C109.698 75.375 107.969 74.7917 106.219 73.625C104.469 72.4583 103.26 71.0938 102.594 69.5312L107.438 65.7812C107.833 71.0729 109.312 73.7188 111.875 73.7188C113.354 73.7188 114.094 72.8438 114.094 71.0938V30.6875H119.625V69.0312ZM152.969 26.8438H132.156V31.8438C132.24 31.8438 132.323 31.8854 132.406 31.9688C132.49 32.0521 132.562 32.0938 132.625 32.0938C132.458 32.0938 132.365 32.0833 132.344 32.0625C132.344 31.9583 133.896 31.625 137 31.0625C138.146 30.8542 139.281 30.75 140.406 30.75C145.094 30.75 148.104 32.0625 149.438 34.6875C150.333 36.4375 150.781 39.9688 150.781 45.2812V57.3125C150.344 57.1458 148.688 56.4688 145.812 55.2812C145.812 54.6146 145.677 54.1875 145.406 54C144.302 54.6458 143.396 55.1354 142.688 55.4688C140.438 56.5312 137.823 57.0625 134.844 57.0625C130.74 57.0625 127.573 55.7708 125.344 53.1875C124.26 51.9375 123.719 50.5417 123.719 49C123.719 47.2708 124.573 45.5521 126.281 43.8438C129.594 40.5312 133.708 38.875 138.625 38.875C141.604 38.875 144 39.5625 145.812 40.9375V38.0625C144.896 36.8958 144 36.1146 143.125 35.7188C142.271 35.3229 141.094 35.1458 139.594 35.1875C136.24 35.25 133.167 35.8646 130.375 37.0312C129.125 37.5521 127.906 38.0208 126.719 38.4375V36.125C126.99 35.8958 127.385 35.5521 127.906 35.0938C127.99 34.9896 128.042 34.9271 128.062 34.9062V26.8438H121.656V23.0938H152.969V26.8438ZM145.812 46.625C145.812 45.7083 144.719 44.8854 142.531 44.1562C140.719 43.5521 139.208 43.25 138 43.25C133.604 43.25 130.083 44.8333 127.438 48C126.375 49.2708 125.844 50.3125 125.844 51.125C126.281 52.6458 128 53.4062 131 53.4062C134.875 53.4062 138.417 52.4375 141.625 50.5C144.417 48.8125 145.812 47.5208 145.812 46.625ZM186.156 26.8438H152.562V23.0938H186.156V26.8438ZM179.438 40.5625C179.438 35.5625 177.073 33.0625 172.344 33.0625C168.844 33.0625 165.917 34.8958 163.562 38.5625C161.479 41.8125 160.438 45.2708 160.438 48.9375V58.0312L155.312 55.3438V31.8438H160.688V35.5625L163.469 33.4688C165.927 31.6146 168.521 30.6875 171.25 30.6875C174.958 30.6875 178.031 32.125 180.469 35C182.76 37.7083 183.906 40.9479 183.906 44.7188C183.906 49.4479 181.906 53.9896 177.906 58.3438L171.875 54.5625C173.75 52.7083 175.344 51 176.656 49.4375C178.51 47.2292 179.438 44.2708 179.438 40.5625ZM216.219 26.8438H195.406V31.8438C195.49 31.8438 195.573 31.8854 195.656 31.9688C195.74 32.0521 195.812 32.0938 195.875 32.0938C195.708 32.0938 195.615 32.0833 195.594 32.0625C195.594 31.9583 197.146 31.625 200.25 31.0625C201.396 30.8542 202.531 30.75 203.656 30.75C208.344 30.75 211.354 32.0625 212.688 34.6875C213.583 36.4375 214.031 39.9688 214.031 45.2812V57.3125C213.594 57.1458 211.938 56.4688 209.062 55.2812C209.062 54.6146 208.927 54.1875 208.656 54C207.552 54.6458 206.646 55.1354 205.938 55.4688C203.688 56.5312 201.073 57.0625 198.094 57.0625C193.99 57.0625 190.823 55.7708 188.594 53.1875C187.51 51.9375 186.969 50.5417 186.969 49C186.969 47.2708 187.823 45.5521 189.531 43.8438C192.844 40.5312 196.958 38.875 201.875 38.875C204.854 38.875 207.25 39.5625 209.062 40.9375V38.0625C208.146 36.8958 207.25 36.1146 206.375 35.7188C205.521 35.3229 204.344 35.1458 202.844 35.1875C199.49 35.25 196.417 35.8646 193.625 37.0312C192.375 37.5521 191.156 38.0208 189.969 38.4375V36.125C190.24 35.8958 190.635 35.5521 191.156 35.0938C191.24 34.9896 191.292 34.9271 191.312 34.9062V26.8438H184.906V23.0938H216.219V26.8438ZM209.062 46.625C209.062 45.7083 207.969 44.8854 205.781 44.1562C203.969 43.5521 202.458 43.25 201.25 43.25C196.854 43.25 193.333 44.8333 190.688 48C189.625 49.2708 189.094 50.3125 189.094 51.125C189.531 52.6458 191.25 53.4062 194.25 53.4062C198.125 53.4062 201.667 52.4375 204.875 50.5C207.667 48.8125 209.062 47.5208 209.062 46.625ZM263.75 26.8438H253.438L253.5 31.2188C256.333 32.2604 258.375 33.625 259.625 35.3125C260.917 37.0625 261.562 39.4271 261.562 42.4062C261.562 46.6979 259.844 50.3854 256.406 53.4688C255.76 54.0521 254.771 54.8125 253.438 55.75C251.792 56.9167 250.75 57.5 250.312 57.5C249.875 57.5 247.865 55.6667 244.281 52C246.49 51.875 248.792 51.1667 251.188 49.875C253.458 48.6667 255.385 47.1875 256.969 45.4375C258.677 43.5625 259.531 41.5729 259.531 39.4688C259.531 37.3854 258.375 35.9375 256.062 35.125C254.938 34.7292 253.823 34.5521 252.719 34.5938C245.969 34.8646 241.833 38.7917 240.312 46.375L233.906 43.75C233.906 42 234.583 40.0417 235.938 37.875C236.438 37.0833 236.698 36.6354 236.719 36.5312C236.719 35.5521 235.312 35.0625 232.5 35.0625C228.896 35.0625 226.094 36.6458 224.094 39.8125C223.219 41.2083 222.781 42.6042 222.781 44C222.781 46.9167 224.125 49.6771 226.812 52.2812L232.75 58.0312C229.125 56.7812 225.76 54.9688 222.656 52.5938C218.51 49.4271 216.438 46.0312 216.438 42.4062C216.438 37.8229 218.75 34.4062 223.375 32.1562C225.396 31.1771 227.479 30.6875 229.625 30.6875C232.375 30.6875 235.125 31.5104 237.875 33.1562C238.917 33.7812 239.521 34.1146 239.688 34.1562C241.271 33.4688 243.01 32.7292 244.906 31.9375C245.906 31.5208 246.917 31.2396 247.938 31.0938L248 26.8438H215.5V23.0938H263.75V26.8438Z" fill="url(#myGradient)"/>
</svg>



